<?xml version="1.0" encoding="UTF-8" standalone="no"?>
<svg
   xmlns:dc="http://purl.org/dc/elements/1.1/"
   xmlns:cc="http://creativecommons.org/ns#"
   xmlns:rdf="http://www.w3.org/1999/02/22-rdf-syntax-ns#"
   xmlns:svg="http://www.w3.org/2000/svg"
   xmlns="http://www.w3.org/2000/svg"
   xmlns:sodipodi="http://sodipodi.sourceforge.net/DTD/sodipodi-0.dtd"
   xmlns:inkscape="http://www.inkscape.org/namespaces/inkscape"
   viewBox="0 0 384 512"
   version="1.1"
   id="svg915"
   sodipodi:docname="child-blue.svg"
   inkscape:version="1.0.2-2 (e86c870879, 2021-01-15)">
  <metadata
     id="metadata921">
    <rdf:RDF>
      <cc:Work
         rdf:about="">
        <dc:format>image/svg+xml</dc:format>
        <dc:type
           rdf:resource="http://purl.org/dc/dcmitype/StillImage" />
      </cc:Work>
    </rdf:RDF>
  </metadata>
  <defs
     id="defs919" />
  <sodipodi:namedview
     pagecolor="#ffffff"
     bordercolor="#666666"
     borderopacity="1"
     objecttolerance="10"
     gridtolerance="10"
     guidetolerance="10"
     inkscape:pageopacity="0"
     inkscape:pageshadow="2"
     inkscape:window-width="2400"
     inkscape:window-height="1284"
     id="namedview917"
     showgrid="false"
     inkscape:zoom="2.109375"
     inkscape:cx="192"
     inkscape:cy="256"
     inkscape:window-x="2391"
     inkscape:window-y="-9"
     inkscape:window-maximized="1"
     inkscape:current-layer="svg915" />
  <!-- Font Awesome Free 5.15.3 by @fontawesome - https://fontawesome.com License - https://fontawesome.com/license/free (Icons: CC BY 4.0, Fonts: SIL OFL 1.1, Code: MIT License) -->
  <path
     d="M120 72c0-39.765 32.235-72 72-72s72 32.235 72 72c0 39.764-32.235 72-72 72s-72-32.236-72-72zm254.627 1.373c-12.496-12.497-32.758-12.497-45.254 0L242.745 160H141.254L54.627 73.373c-12.496-12.497-32.758-12.497-45.254 0-12.497 12.497-12.497 32.758 0 45.255L104 213.254V480c0 17.673 14.327 32 32 32h16c17.673 0 32-14.327 32-32V368h16v112c0 17.673 14.327 32 32 32h16c17.673 0 32-14.327 32-32V213.254l94.627-94.627c12.497-12.497 12.497-32.757 0-45.254z"
     id="path913" />
  <path
     style="fill:#0065fc;fill-opacity:1;stroke-width:0.474074"
     d="m 132.41746,511.51332 c -11.18,-1.4108 -20.18645,-7.95752 -25.11078,-18.25285 -3.21451,-6.72058 -2.99307,3.97775 -3.00215,-145.04563 L 104.2963,213.11116 55.071644,163.80003 5.8469945,114.48889 3.8726315,110.45926 C 1.2452051,105.09674 0.44890752,101.73378 0.44890752,96 c 0,-5.72429 0.79549918,-9.079138 3.42717618,-14.453383 3.7470122,-7.651911 11.8926053,-14.149447 20.5387313,-16.38323 3.710564,-0.958648 11.471516,-0.956742 15.17037,0.0037 1.564445,0.406234 4.657778,1.615142 6.874074,2.686462 l 4.02963,1.947855 45.282147,45.217806 45.282144,45.2178 H 192 242.94682 l 45.28214,-45.19455 45.28215,-45.194539 4.02963,-1.97484 C 342.94738,65.2234 346.28417,64.42848 352,64.42848 c 5.70596,0 9.03417,0.793884 14.45338,3.447578 7.65494,3.748492 14.20374,11.962222 16.36045,20.519815 1.10236,4.37406 0.93533,11.703727 -0.36936,16.208227 -2.40189,8.29265 0.0625,5.56686 -53.73202,59.4308 l -49.00875,49.07196 -0.008,135.10581 c -0.009,149.02674 0.21239,138.3276 -3.00237,145.04777 -4.25979,8.90474 -11.99201,15.27618 -21.40421,17.63731 -4.81837,1.20873 -26.04222,1.22154 -30.57778,0.0184 -9.32118,-2.47249 -17.04099,-8.70702 -21.00426,-16.96305 -1.18062,-2.45942 -2.41836,-5.53836 -2.75052,-6.84206 -0.46858,-1.83917 -0.63996,-15.46436 -0.76475,-60.8 l -0.16082,-58.42963 H 192 183.96926 l -0.1416,58.42963 c -0.15889,65.56072 0.13853,60.17481 -3.763,68.14227 -3.78104,7.72139 -11.73202,14.06699 -20.53873,16.39177 -3.39395,0.89593 -21.72339,1.34771 -27.10847,0.66817 z"
     id="path923" />
  <path
     style="fill:#0065fc;fill-opacity:1;stroke-width:0.474074"
     d="m 181.33333,142.98326 c -26.8258,-4.41304 -48.86875,-22.96504 -57.27896,-48.207661 -2.93655,-8.813819 -3.3968,-11.889071 -3.39981,-22.71634 -0.002,-8.449133 0.14121,-10.361292 1.09913,-14.639644 6.37268,-28.462301 28.09306,-49.9899375 56.26112,-55.761877 8.00697,-1.64071305 19.96341,-1.64071305 27.97038,0 27.8531,5.707401 49.38439,26.753322 56.0199,54.757077 1.74979,7.384628 2.0618,19.391289 0.70949,27.30213 -2.60033,15.211539 -9.1388,27.787175 -20.20292,38.856845 -10.39108,10.39628 -21.83192,16.63309 -36.16331,19.7139 -5.87211,1.26232 -19.30017,1.6357 -25.01502,0.69557 z"
     id="path925" />
</svg>
