<?xml version="1.0" encoding="UTF-8" standalone="no"?>
<svg
   xmlns:dc="http://purl.org/dc/elements/1.1/"
   xmlns:cc="http://creativecommons.org/ns#"
   xmlns:rdf="http://www.w3.org/1999/02/22-rdf-syntax-ns#"
   xmlns:svg="http://www.w3.org/2000/svg"
   xmlns="http://www.w3.org/2000/svg"
   xmlns:sodipodi="http://sodipodi.sourceforge.net/DTD/sodipodi-0.dtd"
   xmlns:inkscape="http://www.inkscape.org/namespaces/inkscape"
   viewBox="0 0 576 512"
   version="1.1"
   id="svg947"
   sodipodi:docname="dog-blue.svg"
   inkscape:version="1.0.2-2 (e86c870879, 2021-01-15)">
  <metadata
     id="metadata953">
    <rdf:RDF>
      <cc:Work
         rdf:about="">
        <dc:format>image/svg+xml</dc:format>
        <dc:type
           rdf:resource="http://purl.org/dc/dcmitype/StillImage" />
      </cc:Work>
    </rdf:RDF>
  </metadata>
  <defs
     id="defs951" />
  <sodipodi:namedview
     pagecolor="#ffffff"
     bordercolor="#666666"
     borderopacity="1"
     objecttolerance="10"
     gridtolerance="10"
     guidetolerance="10"
     inkscape:pageopacity="0"
     inkscape:pageshadow="2"
     inkscape:window-width="2400"
     inkscape:window-height="1284"
     id="namedview949"
     showgrid="false"
     inkscape:zoom="2.109375"
     inkscape:cx="288"
     inkscape:cy="256"
     inkscape:window-x="2391"
     inkscape:window-y="-9"
     inkscape:window-maximized="1"
     inkscape:current-layer="svg947" />
  <!-- Font Awesome Free 5.15.3 by @fontawesome - https://fontawesome.com License - https://fontawesome.com/license/free (Icons: CC BY 4.0, Fonts: SIL OFL 1.1, Code: MIT License) -->
  <path
     d="M298.06,224,448,277.55V496a16,16,0,0,1-16,16H368a16,16,0,0,1-16-16V384H192V496a16,16,0,0,1-16,16H112a16,16,0,0,1-16-16V282.09C58.84,268.84,32,233.66,32,192a32,32,0,0,1,64,0,32.06,32.06,0,0,0,32,32ZM544,112v32a64,64,0,0,1-64,64H448v35.58L320,197.87V48c0-14.25,17.22-21.39,27.31-11.31L374.59,64h53.63c10.91,0,23.75,7.92,28.62,17.69L464,96h64A16,16,0,0,1,544,112Zm-112,0a16,16,0,1,0-16,16A16,16,0,0,0,432,112Z"
     id="path945" />
  <path
     style="fill:#0065fc;fill-opacity:1;stroke-width:0.474074"
     d="M 385.8963,221.11767 C 352,209.01953 323.35686,198.77998 322.24487,198.3631 l -2.02179,-0.75796 0.1255,-76.87664 0.12549,-76.876648 1.0935,-2.197867 c 1.7671,-3.551767 4.12184,-5.922552 7.56767,-7.61926 2.73279,-1.345607 3.6609,-1.560651 6.73566,-1.560651 6.53182,0 6.44213,-0.06419 23.24021,16.632062 l 14.93333,14.842803 28.91852,0.170383 c 32.60315,0.192091 31.04188,0.03299 39.09326,3.983704 3.77406,1.851881 5.17153,2.885766 8.8071,6.515728 4.16447,4.158041 4.47959,4.628042 8.68567,12.954347 l 4.36443,8.639768 33.99884,0.130602 c 33.70582,0.12948 34.01796,0.13943 36.21547,1.155025 2.96699,1.371217 6.38286,4.595794 7.77164,7.336424 1.96495,3.87762 2.23647,7.65555 1.97151,27.43175 -0.27176,20.28355 -0.57982,23.10396 -3.46684,31.7398 -6.29462,18.82892 -21.23018,33.93242 -39.78182,40.22914 -8.86843,3.01008 -9.47693,3.07225 -32.11285,3.28054 l -20.73507,0.1908 -0.12419,17.70367 -0.12418,17.70366 z m 37.50286,-94.66389 c 3.17599,-1.63402 6.51281,-5.39744 7.79169,-8.78782 0.82729,-2.19323 0.9806,-3.41826 0.81288,-6.49559 C 431.65475,104.76701 428.76582,100.291 423.2197,97.560652 420.38482,96.165049 419.6213,96 416,96 c -3.6213,0 -4.38482,0.165049 -7.2197,1.560652 -5.54612,2.730348 -8.43505,7.206358 -8.78403,13.609718 -0.26192,4.8057 0.89234,8.15293 4.00548,11.61549 3.62928,4.03663 6.66388,5.24234 12.70936,5.04968 3.50644,-0.11175 4.69811,-0.35794 6.68805,-1.38176 z"
     id="path955" />
  <path
     style="fill:#0065fc;fill-opacity:1;stroke-width:0.474074"
     d="m 109.89286,511.52175 c -5.43231,-0.79401 -10.511233,-4.77014 -12.553046,-9.82739 l -1.102777,-2.7314 -0.12644,-108.59612 -0.126436,-108.59612 -3.42912,-1.31703 c -4.542521,-1.74466 -12.474297,-5.91944 -17.177263,-9.04102 -26.492383,-17.58426 -42.930153,-47.3114 -42.896697,-77.57722 0.01065,-9.63062 1.776997,-15.26992 6.708766,-21.41859 4.711103,-5.87356 11.366388,-9.98617 18.508686,-11.43737 6.975878,-1.41739 13.54653,-0.57154 20.049615,2.58102 6.455671,3.12958 11.878542,8.53678 14.833219,14.79036 2.049583,4.33795 2.422722,5.96976 3.175286,13.88617 0.399739,4.20496 1.063206,8.23003 1.623452,9.84903 3.341165,9.65524 10.822645,17.15484 20.474145,20.52373 l 3.98279,1.3902 88.17777,0.1426 88.17778,0.1426 74.66667,26.68503 74.66667,26.68502 v 111.12793 111.12793 l -1.02443,2.21662 c -1.36809,2.96024 -4.59404,6.38198 -7.31831,7.76247 -1.21981,0.61812 -3.57504,1.34409 -5.23384,1.61325 -3.78043,0.61342 -63.42288,0.65431 -67.62694,0.0464 -5.92036,-0.85614 -10.86457,-4.60942 -12.9826,-9.85545 l -1.10277,-2.7314 -0.133,-57.48148 L 351.97105,384 h -80.09668 -80.09669 l -0.12587,57.95556 -0.12588,57.95555 -1.02443,2.21662 c -1.36809,2.96024 -4.59404,6.38198 -7.31831,7.76247 -1.21981,0.61812 -3.57504,1.34409 -5.23384,1.61325 -3.49714,0.56746 -64.18771,0.58378 -68.05649,0.0183 z"
     id="path957" />
</svg>
