<?xml version="1.0" encoding="UTF-8" standalone="no"?>
<svg
   xmlns:dc="http://purl.org/dc/elements/1.1/"
   xmlns:cc="http://creativecommons.org/ns#"
   xmlns:rdf="http://www.w3.org/1999/02/22-rdf-syntax-ns#"
   xmlns:svg="http://www.w3.org/2000/svg"
   xmlns="http://www.w3.org/2000/svg"
   xmlns:sodipodi="http://sodipodi.sourceforge.net/DTD/sodipodi-0.dtd"
   xmlns:inkscape="http://www.inkscape.org/namespaces/inkscape"
   viewBox="0 0 512 512"
   version="1.1"
   id="svg996"
   sodipodi:docname="heart-blue.svg"
   inkscape:version="1.0.2-2 (e86c870879, 2021-01-15)">
  <metadata
     id="metadata1002">
    <rdf:RDF>
      <cc:Work
         rdf:about="">
        <dc:format>image/svg+xml</dc:format>
        <dc:type
           rdf:resource="http://purl.org/dc/dcmitype/StillImage" />
      </cc:Work>
    </rdf:RDF>
  </metadata>
  <defs
     id="defs1000" />
  <sodipodi:namedview
     pagecolor="#ffffff"
     bordercolor="#666666"
     borderopacity="1"
     objecttolerance="10"
     gridtolerance="10"
     guidetolerance="10"
     inkscape:pageopacity="0"
     inkscape:pageshadow="2"
     inkscape:window-width="1902"
     inkscape:window-height="995"
     id="namedview998"
     showgrid="false"
     inkscape:zoom="2.109375"
     inkscape:cx="256"
     inkscape:cy="293.92593"
     inkscape:window-x="2912"
     inkscape:window-y="0"
     inkscape:window-maximized="0"
     inkscape:current-layer="svg996"
     inkscape:document-rotation="0" />
  <!-- Font Awesome Free 5.15.3 by @fontawesome - https://fontawesome.com License - https://fontawesome.com/license/free (Icons: CC BY 4.0, Fonts: SIL OFL 1.1, Code: MIT License) -->
  <path
     d="M462.3 62.6C407.5 15.9 326 24.3 275.7 76.2L256 96.5l-19.7-20.3C186.1 24.3 104.5 15.9 49.7 62.6c-62.8 53.6-66.1 149.8-9.9 207.9l193.5 199.8c12.5 12.9 32.8 12.9 45.3 0l193.5-199.8c56.3-58.1 53-154.3-9.8-207.9z"
     id="path994" />
  <path
     style="fill:#0065fc;fill-opacity:1;stroke-width:0.474074"
     d="M 159.28889,256.23704 V 144.11852 h 96.94815 96.94815 v 112.11852 112.11852 h -96.94815 -96.94815 z"
     id="path1004" />
  <path
     style="fill:#0065fc;fill-opacity:1;stroke-width:0.474074"
     d="m 249.83704,479.0614 c -4.03422,-0.8881 -7.52011,-2.361 -11.02419,-4.65808 C 236.51557,472.89736 211.88852,447.74959 137.32678,370.77145 83.17779,314.86759 37.524278,267.61426 35.874527,265.76404 -6.6823633,218.03584 -11.587109,145.78623 24.076348,91.97037 30.97771,81.556271 41.963229,69.377064 51.657609,61.392119 85.332039,33.655596 131.15951,25.097397 174.45926,38.45913 c 16.74567,5.167492 34.03551,14.396621 48.35555,25.811663 3.02973,2.415108 11.08614,10.105682 19.22699,18.353909 l 14.01217,14.196982 12.00915,-12.344671 c 13.08479,-13.450374 17.63641,-17.632221 25.96469,-23.855312 19.73631,-14.747443 42.49127,-23.899239 68.40182,-27.510456 6.88799,-0.959996 26.81506,-0.82406 33.65926,0.229613 29.48493,4.53924 53.42827,16.482924 73.90293,36.865097 11.65289,11.600244 21.92915,26.206513 28.51603,40.531595 22.90442,49.81219 15.54892,108.63495 -18.84857,150.73394 -3.8426,4.70299 -192.56443,200.1833 -201.73078,208.95516 -7.90993,7.56952 -18.35126,10.77898 -28.09146,8.63475 z M 353.42222,256.23704 V 144.11852 h -97.18518 -97.18519 v 112.11852 112.11852 h 97.18519 97.18518 z"
     id="path1047" />
  <path
     style="fill:#0065fc;fill-opacity:1;stroke-width:0.474074"
     d="m 248.02559,478.29952 c -3.81691,-1.08831 -6.37014,-2.32082 -9.44106,-4.55743 -2.86462,-2.08636 -45.5572,-45.79122 -130.28256,-133.37167 C 28.769144,258.15749 31.585276,261.18162 24.21612,250.07407 12.379555,232.2328 5.4603145,213.86445 1.8042478,190.57778 0.47899444,182.13681 0.60570818,159.6127 2.0296089,150.51852 7.0922235,118.18458 20.789166,91.510552 43.915786,68.947534 50.916855,62.117082 55.430035,58.465577 63.051852,53.464996 79.944988,42.381616 100.37893,35.19697 120.81664,33.154697 c 7.33484,-0.732947 25.89672,-0.319593 32.30929,0.719496 22.58953,3.660397 41.59284,11.199416 60.42655,23.972504 8.22455,5.577921 13.13048,9.941891 28.45902,25.315192 l 13.98187,14.022694 13.9885,-14.145019 c 14.35204,-14.512626 19.9252,-19.38422 29.86998,-26.109876 16.91389,-11.438859 35.74126,-18.886426 57.83704,-22.878672 5.29062,-0.955905 7.47606,-1.072122 20.38518,-1.08404 16.27908,-0.01503 19.46307,0.336952 32,3.537516 9.8052,2.503177 17.11306,5.198667 25.88298,9.546888 13.37401,6.630975 24.31241,14.756786 35.79292,26.589488 22.03866,22.714747 35.14586,50.820492 38.86104,83.329502 1.0606,9.28064 0.72154,26.79642 -0.6975,36.03148 -3.66773,23.86989 -13.03448,46.2908 -27.16649,65.02754 -3.6709,4.86705 -11.17919,12.78643 -69.80949,73.63183 -94.2246,97.78449 -134.56775,139.25763 -137.97434,141.83896 -3.71984,2.81869 -8.51464,5.20538 -12.20594,6.0757 -4.15736,0.98021 -10.75904,0.85636 -14.73166,-0.27636 z m -88.6182,-278.08371 c -0.0673,-30.98388 -0.12241,-5.77433 -0.12242,56.02123 0,61.79555 0.0551,87.146 0.12241,56.33433 0.0673,-30.81167 0.0673,-81.37167 1e-5,-112.35556 z m 193.8963,0 c -0.0673,-30.98388 -0.12242,-5.77433 -0.12242,56.02123 -10e-6,61.79555 0.0551,87.146 0.12241,56.33433 0.0673,-30.81167 0.0673,-81.37167 1e-5,-112.35556 z"
     id="path1049" />
  <path
     style="fill:#0065fc;fill-opacity:1;stroke-width:0.474074"
     d="m 247.7037,478.17929 c -6.52189,-1.94214 -7.94725,-3.00934 -19.70502,-14.75355 C 212.45039,447.89539 162.92257,396.92745 80.098366,311.22494 30.765772,260.17793 31.111972,260.55634 24.194127,250.11962 11.256197,230.6006 3.3921569,208.12067 1.1542899,184.25856 0.35950369,175.78386 0.82369778,158.53101 2.0620781,150.51852 7.1002335,117.92095 20.792265,91.398139 44.415724,68.475337 64.698387,48.794243 90.194394,36.744603 118.58135,33.424003 c 7.89739,-0.923808 22.82201,-0.92027 30.75149,0.0073 21.8738,2.558717 42.454,10.162529 61.86716,22.858197 9.38525,6.137697 13.06839,9.336242 29.19787,25.356276 l 15.68676,15.580317 11.03069,-11.392422 c 18.41239,-19.016192 28.16429,-26.991142 43.4032,-35.494446 14.14078,-7.89055 32.56341,-14.066732 50.01481,-16.767455 6.46612,-1.000675 30.62306,-0.8352 37.21482,0.254921 22.53201,3.726265 43.68179,12.927145 60.44444,26.295405 5.45385,4.349457 15.03437,13.63092 19.41737,18.811246 17.65148,20.862597 27.66829,42.971258 32.35906,71.421858 0.9106,5.52306 1.04325,8.13203 1.04438,20.54851 0,12.33259 -0.13729,15.10406 -1.04201,20.85926 -3.81464,24.26635 -12.95976,46.31536 -26.87038,64.78499 -4.07746,5.41383 -10.6673,12.38027 -68.52323,72.43935 -93.79699,97.36878 -136.07928,140.8313 -139.61459,143.51167 -3.59835,2.72817 -8.26923,5.08897 -11.96156,6.04576 -4.2352,1.09744 -10.92178,0.93772 -15.29793,-0.36544 z M 159.40735,221.47396 c -0.0686,-18.94845 -0.12474,-3.30507 -0.12473,34.76308 1e-5,38.06815 0.0562,53.57143 0.12475,34.45174 0.0686,-19.11969 0.0686,-50.26636 -2e-5,-69.21482 z m 193.8963,0 c -0.0686,-18.94845 -0.12475,-3.30507 -0.12474,34.76308 2e-5,38.06815 0.0562,53.57143 0.12476,34.45174 0.0686,-19.11969 0.0686,-50.26636 -2e-5,-69.21482 z"
     id="path1051" />
</svg>
