<?xml version="1.0" encoding="UTF-8" standalone="no"?>
<svg
   xmlns:dc="http://purl.org/dc/elements/1.1/"
   xmlns:cc="http://creativecommons.org/ns#"
   xmlns:rdf="http://www.w3.org/1999/02/22-rdf-syntax-ns#"
   xmlns:svg="http://www.w3.org/2000/svg"
   xmlns="http://www.w3.org/2000/svg"
   xmlns:sodipodi="http://sodipodi.sourceforge.net/DTD/sodipodi-0.dtd"
   xmlns:inkscape="http://www.inkscape.org/namespaces/inkscape"
   viewBox="0 0 640 512"
   version="1.1"
   id="svg885"
   sodipodi:docname="money-bill-wave-blue.svg"
   inkscape:version="1.0.2-2 (e86c870879, 2021-01-15)">
  <metadata
     id="metadata891">
    <rdf:RDF>
      <cc:Work
         rdf:about="">
        <dc:format>image/svg+xml</dc:format>
        <dc:type
           rdf:resource="http://purl.org/dc/dcmitype/StillImage" />
      </cc:Work>
    </rdf:RDF>
  </metadata>
  <defs
     id="defs889" />
  <sodipodi:namedview
     pagecolor="#ffffff"
     bordercolor="#666666"
     borderopacity="1"
     objecttolerance="10"
     gridtolerance="10"
     guidetolerance="10"
     inkscape:pageopacity="0"
     inkscape:pageshadow="2"
     inkscape:window-width="2400"
     inkscape:window-height="1284"
     id="namedview887"
     showgrid="false"
     inkscape:zoom="2.109375"
     inkscape:cx="228.74074"
     inkscape:cy="256"
     inkscape:window-x="2391"
     inkscape:window-y="-9"
     inkscape:window-maximized="1"
     inkscape:current-layer="svg885" />
  <!-- Font Awesome Free 5.15.3 by @fontawesome - https://fontawesome.com License - https://fontawesome.com/license/free (Icons: CC BY 4.0, Fonts: SIL OFL 1.1, Code: MIT License) -->
  <path
     d="M621.16 54.46C582.37 38.19 543.55 32 504.75 32c-123.17-.01-246.33 62.34-369.5 62.34-30.89 0-61.76-3.92-92.65-13.72-3.47-1.1-6.95-1.62-10.35-1.62C15.04 79 0 92.32 0 110.81v317.26c0 12.63 7.23 24.6 18.84 29.46C57.63 473.81 96.45 480 135.25 480c123.17 0 246.34-62.35 369.51-62.35 30.89 0 61.76 3.92 92.65 13.72 3.47 1.1 6.95 1.62 10.35 1.62 17.21 0 32.25-13.32 32.25-31.81V83.93c-.01-12.64-7.24-24.6-18.85-29.47zM48 132.22c20.12 5.04 41.12 7.57 62.72 8.93C104.84 170.54 79 192.69 48 192.69v-60.47zm0 285v-47.78c34.37 0 62.18 27.27 63.71 61.4-22.53-1.81-43.59-6.31-63.71-13.62zM320 352c-44.19 0-80-42.99-80-96 0-53.02 35.82-96 80-96s80 42.98 80 96c0 53.03-35.83 96-80 96zm272 27.78c-17.52-4.39-35.71-6.85-54.32-8.44 5.87-26.08 27.5-45.88 54.32-49.28v57.72zm0-236.11c-30.89-3.91-54.86-29.7-55.81-61.55 19.54 2.17 38.09 6.23 55.81 12.66v48.89z"
     id="path883" />
  <path
     style="fill:#0065fc;stroke-width:0.474074;fill-opacity:1"
     d="M 115.67407,479.22916 C 100.34578,478.37831 81.752913,475.79419 66.50908,472.39597 46.175662,467.86317 20.522975,459.02264 13.603971,454.16362 8.1635883,450.34298 4.1191623,444.75921 1.7641203,437.8174 L 0.47407407,434.01481 0.34421556,271.17037 C 0.19899221,89.058228 -0.09298508,104.50156 3.6421025,96.737745 5.1766561,93.547994 6.357193,91.945453 9.4529816,88.849664 c 3.2304604,-3.230459 4.6385474,-4.245708 8.3567904,-6.025358 5.886876,-2.817617 8.588704,-3.425385 14.901339,-3.352017 4.929488,0.0573 5.801384,0.230685 15.935346,3.168958 21.041711,6.100906 41.423682,9.650911 64.339403,11.206243 9.35608,0.635018 35.51291,0.634022 45.59192,-0.0019 23.83017,-1.503132 47.89906,-4.828046 77.05043,-10.643864 21.24171,-4.237643 38.44688,-8.268578 85.0829,-19.933584 51.56036,-12.896726 66.50644,-16.373146 89.54126,-20.827077 69.57611,-13.45299 122.13277,-13.584991 173.09578,-0.434746 13.94394,3.598025 35.05038,11.018158 41.00741,14.416454 6.47959,3.696412 11.21251,9.84221 14.0497,18.24389 l 1.12067,3.318518 0.12984,162.844449 c 0.1454,182.29242 0.44288,166.73336 -3.33572,174.45926 -2.53644,5.18618 -7.94449,10.78188 -12.91264,13.36071 -5.73962,2.97929 -9.63646,3.93231 -15.88148,3.88403 -4.85173,-0.0375 -6.07811,-0.23287 -11.14074,-1.77467 -19.78013,-6.02393 -38.65951,-9.74716 -60.91852,-12.01384 -10.49041,-1.06826 -49.68515,-1.21843 -60.68148,-0.23249 -24.87855,2.23064 -43.60165,4.94213 -69.68889,10.0924 -21.2015,4.1857 -36.82893,7.85856 -89.6,21.05839 -41.49412,10.37908 -58.81313,14.4561 -77.51111,18.24668 -47.79774,9.68986 -86.73904,13.29361 -122.31112,11.31906 z m -3.89529,-50.78472 c -1.84216,-22.86143 -16.013186,-43.4048 -36.685366,-53.18184 -7.336296,-3.46975 -17.541665,-5.95252 -24.486007,-5.95699 l -2.962963,-0.002 v 24.09486 24.09485 l 8.414815,2.67957 c 14.196589,4.52067 27.378489,7.48358 41.382699,9.30165 8.850352,1.14897 10.091902,1.28532 12.592152,1.38283 l 1.94523,0.0759 z m 480.37435,-106.4345 c -0.4426,-0.44261 -7.35891,1.01511 -12.01067,2.53143 -19.24821,6.27428 -34.63775,21.47304 -40.81721,40.3112 -2.39038,7.28713 -2.54364,6.65908 1.71662,7.03345 14.29575,1.25627 33.17073,4.10023 45.15072,6.80303 l 5.92593,1.33695 0.12217,-28.90316 c 0.0672,-15.89673 0.028,-28.99754 -0.0876,-29.1129 z m -258.54768,28.81613 c 20.84911,-4.39378 39.82409,-18.72441 51.85099,-39.15987 14.85542,-25.24151 18.77063,-57.8573 10.42555,-86.85039 -5.16028,-17.92819 -13.34727,-31.81103 -25.93678,-43.9815 -26.2164,-25.34377 -63.61654,-27.9981 -92.37484,-6.55593 -4.57859,3.4138 -12.48612,11.2278 -16.18236,15.99096 -26.99762,34.79052 -28.88876,87.79183 -4.46823,125.22696 5.09311,7.8074 13.60238,16.96491 20.65059,22.22372 9.73519,7.26362 22.20413,12.43298 33.75584,13.99446 5.27177,0.7126 16.87841,0.24977 22.27924,-0.88841 z M 60.430639,191.69317 c 12.865091,-2.62601 23.52403,-8.36708 32.763928,-17.64716 8.789003,-8.82722 14.965013,-19.87754 17.423443,-31.1746 l 0.42614,-1.95822 -4.79615,-0.32241 c -18.68868,-1.25633 -40.054388,-4.33383 -55.640593,-8.01441 l -2.962963,-0.69969 v 30.60069 30.60068 l 4.622223,-0.33097 c 2.542222,-0.18203 6.216012,-0.65629 8.163972,-1.05391 z M 592.35556,119.31119 V 94.50387 l -7.70371,-2.441202 c -13.40629,-4.248277 -26.23711,-7.171058 -39.81852,-9.070445 -9.96125,-1.393086 -9.06529,-1.671453 -8.67949,2.696666 0.48199,5.456882 2.31542,13.147231 4.39438,18.432271 7.91884,20.13099 26.50942,35.38819 47.80369,39.23232 2.07165,0.37397 3.81994,0.6991 3.88513,0.7225 0.0652,0.0234 0.11852,-11.12076 0.11852,-24.76479 z"
     id="path893" />
</svg>
