<?xml version="1.0" encoding="UTF-8" standalone="no"?>
<svg
   xmlns:dc="http://purl.org/dc/elements/1.1/"
   xmlns:cc="http://creativecommons.org/ns#"
   xmlns:rdf="http://www.w3.org/1999/02/22-rdf-syntax-ns#"
   xmlns:svg="http://www.w3.org/2000/svg"
   xmlns="http://www.w3.org/2000/svg"
   xmlns:sodipodi="http://sodipodi.sourceforge.net/DTD/sodipodi-0.dtd"
   xmlns:inkscape="http://www.inkscape.org/namespaces/inkscape"
   viewBox="0 0 576 512"
   version="1.1"
   id="svg1128"
   sodipodi:docname="star-grey.svg"
   inkscape:version="1.0.2-2 (e86c870879, 2021-01-15)">
  <metadata
     id="metadata1134">
    <rdf:RDF>
      <cc:Work
         rdf:about="">
        <dc:format>image/svg+xml</dc:format>
        <dc:type
           rdf:resource="http://purl.org/dc/dcmitype/StillImage" />
      </cc:Work>
    </rdf:RDF>
  </metadata>
  <defs
     id="defs1132" />
  <sodipodi:namedview
     pagecolor="#ffffff"
     bordercolor="#666666"
     borderopacity="1"
     objecttolerance="10"
     gridtolerance="10"
     guidetolerance="10"
     inkscape:pageopacity="0"
     inkscape:pageshadow="2"
     inkscape:window-width="2400"
     inkscape:window-height="1284"
     id="namedview1130"
     showgrid="false"
     inkscape:zoom="1.5800781"
     inkscape:cx="288"
     inkscape:cy="256"
     inkscape:window-x="2391"
     inkscape:window-y="-9"
     inkscape:window-maximized="1"
     inkscape:current-layer="svg1128" />
  <!-- Font Awesome Free 5.15.3 by @fontawesome - https://fontawesome.com License - https://fontawesome.com/license/free (Icons: CC BY 4.0, Fonts: SIL OFL 1.1, Code: MIT License) -->
  <path
     d="M259.3 17.8L194 150.2 47.9 171.5c-26.2 3.8-36.7 36.1-17.7 54.6l105.7 103-25 145.5c-4.5 26.3 23.2 46 46.4 33.7L288 439.6l130.7 68.7c23.2 12.2 50.9-7.4 46.4-33.7l-25-145.5 105.7-103c19-18.5 8.5-50.8-17.7-54.6L382 150.2 316.7 17.8c-11.7-23.6-45.6-23.9-57.4 0z"
     id="path1126" />
  <path
     style="fill:#f2f2f2;fill-opacity:1;stroke-width:0;stroke:none;stroke-miterlimit:4;stroke-dasharray:none"
     d="m 135.01675,510.75002 c -14.10902,-3.97285 -24.19345,-16.4997 -24.21322,-30.07758 -0.003,-1.91447 5.69588,-36.65958 12.66372,-77.21138 6.96783,-40.55179 12.59145,-74.0243 12.49694,-74.38335 -0.0945,-0.35905 -24.23712,-24.09539 -53.650222,-52.74743 -35.291505,-34.37833 -54.379701,-53.41933 -56.128731,-55.98995 -3.875498,-5.69597 -4.953009,-9.54506 -4.899572,-17.50226 0.03592,-5.34801 0.326937,-7.36677 1.490804,-10.34137 3.346384,-8.55266 10.405231,-15.8336 18.195096,-18.76756 2.694428,-1.01483 23.729231,-4.3133 78.191225,-12.26119 40.97785,-5.98008 74.77832,-11.15084 75.11215,-11.49056 0.52114,-0.53034 35.88181,-71.920819 59.69824,-120.526149 7.08645,-14.462273 7.86377,-15.75968 11.78823,-19.6754035 12.63132,-12.6032067 31.82103,-12.60856 44.44468,-0.012398 4.66024,4.6501015 0.0477,-4.3178646 50.92663,99.0146105 13.9558,28.34352 20.60911,41.22213 21.48285,41.58377 0.69617,0.28815 33.87491,5.24479 73.73054,11.01476 39.85562,5.76998 74.35013,11.0483 76.65446,11.72961 12.8368,3.79539 22.0924,16.52056 22.06732,30.33951 -0.0145,8.00075 -3.286,15.6858 -9.42763,22.1465 -1.9464,2.04751 -21.05386,20.73687 -42.46103,41.5319 -21.40717,20.79503 -44.42913,43.24614 -51.15992,49.89135 l -12.23781,12.0822 12.71247,74.08315 c 6.99185,40.74574 12.70908,75.63326 12.70495,77.52782 -0.0375,17.19355 -16.17562,31.9931 -33.58993,30.80383 -2.94159,-0.20089 -6.2746,-0.92296 -8.60476,-1.86416 -2.09186,-0.84494 -33.16506,-16.96603 -69.05155,-35.82466 -35.88649,-18.85862 -65.55764,-34.2884 -65.93588,-34.2884 -0.37825,0 -30.03292,15.42007 -65.89927,34.26683 -35.86635,18.84676 -66.971,34.9775 -69.12144,35.84611 -4.91347,1.98463 -13.06923,2.48446 -17.97934,1.10185 z"
     id="path1136" />
  <path
     style="fill:#f2f2f2;fill-opacity:1;stroke:none;stroke-width:0;stroke-miterlimit:4;stroke-dasharray:none"
     d="m 133.26082,509.74459 c -8.5404,-3.02184 -15.57666,-9.38577 -19.54821,-17.68031 -1.87173,-3.90907 -1.96609,-4.47581 -1.89678,-11.39184 0.0609,-6.08121 1.07408,-13.15863 6.16057,-43.03585 15.02284,-88.24159 18.12626,-106.72418 18.12922,-107.96965 0.002,-0.92864 -14.69541,-15.69579 -48.759711,-48.99039 -52.570184,-51.38234 -59.88924,-58.7821 -62.431156,-63.11955 -3.500568,-5.97327 -4.426914,-16.64672 -2.055672,-23.68564 2.523778,-7.49173 8.962289,-15.10565 15.631499,-18.4852 4.499824,-2.28023 8.252061,-2.90359 91.92228,-15.27094 45.33568,-6.70111 63.91056,-9.58491 64.30995,-9.9843 0.1465,-0.14649 15.03728,-30.18367 33.09063,-66.74929 18.05335,-36.565614 33.70129,-67.757642 34.77321,-69.315619 2.20086,-3.198833 6.63018,-7.0674109 10.85711,-9.4826004 9.40471,-5.37368956 22.18251,-4.78866918 31.51429,1.4428548 5.04327,3.3677657 7.59771,6.3090426 11.16862,12.8599566 1.63546,3.000302 15.73493,31.305863 31.33214,62.901247 15.59722,31.595391 29.76871,60.009321 31.4922,63.142071 l 3.13362,5.69592 6.91072,1.0978 c 6.85589,1.08908 18.30477,2.78337 76.19939,11.27648 63.61319,9.33204 66.91522,9.89815 71.93414,12.3326 6.23482,3.02422 10.89274,7.81314 14.31426,14.71681 l 2.68294,5.41341 v 7.68883 7.68883 l -2.79601,5.65035 c -3.28595,6.64044 2.6701,0.54129 -64.45333,66.00183 -39.42242,38.44577 -47.55233,46.66097 -47.28637,47.78245 0.17664,0.74488 3.88039,22.14443 8.23056,47.55457 16.01037,93.51956 16.34891,95.64983 16.3942,103.15946 0.041,6.79487 -0.0147,7.07775 -2.32589,11.80577 -3.31614,6.78399 -8.2386,11.63922 -15.39628,15.18599 l -5.55699,2.7536 h -7.42374 -7.42374 l -9.71174,-4.87323 c -5.34145,-2.68027 -32.63781,-16.87905 -60.65858,-31.55284 -28.02077,-14.67378 -54.71835,-28.5659 -59.32796,-30.87137 l -8.38111,-4.19175 -6.17513,3.06341 c -3.39633,1.68489 -28.53162,14.7531 -55.85622,29.04048 -27.3246,14.28738 -55.5212,28.96635 -62.65911,32.61995 l -12.97802,6.64289 -6.64126,0.2382 c -5.56358,0.19955 -7.25745,0.0202 -10.43854,-1.10539 z"
     id="path1138" />
  <path
     style="fill:#f2f2f2;fill-opacity:1;stroke:none;stroke-width:0;stroke-miterlimit:4;stroke-dasharray:none"
     d="m 132.8015,509.56172 c -11.81965,-4.28303 -20.61886,-15.20291 -21.22893,-26.34524 -0.30963,-5.65502 -0.0942,-7.04075 14.12099,-90.8384 5.72837,-33.76832 10.41522,-61.90529 10.41522,-62.52661 0,-1.38829 -5.55175,-6.96026 -60.068777,-60.28758 -43.316623,-42.37134 -49.618089,-48.84516 -51.861802,-53.28032 -2.88042,-5.69375 -3.485861,-15.98035 -1.31912,-22.41221 2.537248,-7.53171 8.963535,-15.10629 15.72163,-18.53087 4.202307,-2.12947 9.607551,-3.03823 81.073179,-13.63044 57.95885,-8.59032 74.65417,-11.16439 75.0629,-11.57311 0.13133,-0.13133 15.00689,-30.14859 33.05681,-66.705015 18.04991,-36.556429 33.71232,-67.766053 34.80535,-69.35472 9.31127,-13.53346428 28.66347,-17.2098853 42.3791,-8.0509396 5.04429,3.368446 7.59774,6.3090926 11.17189,12.8659636 1.63727,3.003605 15.74142,31.309166 31.34256,62.901246 15.60114,31.592085 29.77116,60.003315 31.48893,63.136065 l 3.1232,5.69592 6.91072,1.09746 c 3.80089,0.6036 27.41602,4.10307 52.47807,7.7766 87.31653,12.7986 90.52125,13.32883 95.65546,15.82644 6.23613,3.03366 10.89613,7.82655 14.31426,14.72248 l 2.68294,5.41271 v 7.32753 c 0,6.33137 -0.2151,7.86929 -1.5822,11.31275 -3.02083,7.60884 2.02979,2.40826 -80.23378,82.61609 -18.07678,17.62505 -31.97935,31.66441 -32.19101,32.50774 -0.20492,0.81643 3.10304,21.76942 7.35102,46.56221 16.48249,96.19808 16.62108,97.06837 16.70699,104.91321 0.0793,7.24397 0.0596,7.34766 -2.30791,12.14256 -3.3464,6.7774 -8.25283,11.60762 -15.37623,15.1374 l -5.55699,2.7536 h -7.42742 -7.42741 l -10.34094,-5.19078 c -5.68752,-2.85493 -32.12784,-16.60566 -58.75627,-30.55718 -26.62843,-13.95152 -53.0313,-27.70382 -58.67304,-30.56066 l -10.25772,-5.19426 -4.9314,2.42865 c -4.21409,2.07538 -20.98262,10.81712 -102.71139,53.54533 -6.09147,3.18465 -15.41082,7.95665 -20.70966,10.60445 l -9.63427,4.81419 -6.50418,0.2401 c -5.67756,0.20957 -7.04515,0.044 -10.76077,-1.30236 z"
     id="path1140" />
  <path
     style="fill:#f2f2f2;fill-opacity:1;stroke:none;stroke-width:0;stroke-miterlimit:4;stroke-dasharray:none"
     d="m 132.8015,509.56172 c -8.37889,-3.03622 -15.4013,-9.5295 -19.29197,-17.83836 -1.6094,-3.43702 -1.76309,-4.39241 -1.7268,-10.73448 0.0426,-7.44726 -0.13745,-6.30879 16.01523,-101.26082 4.14498,-24.36588 7.72791,-45.72847 7.96208,-47.47241 l 0.42575,-3.1708 -7.79156,-7.9046 c -4.28536,-4.34753 -27.8441,-27.55176 -52.352755,-51.56497 -24.508657,-24.0132 -45.987203,-45.3729 -47.730103,-47.466 -4.912958,-5.90013 -6.222707,-9.34449 -6.588635,-17.32671 -0.264521,-5.77018 -0.112528,-7.30812 1.064687,-10.77303 2.613079,-7.69112 8.977402,-15.25518 15.703156,-18.66338 4.563622,-2.31256 7.173975,-2.74907 87.49211,-14.63048 24.88801,-3.68167 50.46822,-7.53831 56.8449,-8.5703 6.37669,-1.032 11.66053,-1.87636 11.74187,-1.87636 0.0814,0 15.04354,-30.15221 33.24933,-67.004911 18.20579,-36.8527 34.14873,-68.393862 35.42877,-70.091469 3.00357,-3.9833945 9.1132,-8.5905537 13.78828,-10.397492 5.50052,-2.12597225 13.97947,-2.41886159 19.70238,-0.6805811 5.22053,1.5856851 11.10886,5.3621099 14.74318,9.4553971 1.97037,2.219206 8.51768,14.841128 25.99634,50.115846 28.98392,58.49418 42.02255,84.53917 43.60045,87.09298 0.95835,1.55107 1.79055,2.05214 3.909,2.35362 13.16821,1.87395 118.38179,17.47587 131.16609,19.45036 14.67139,2.26595 16.94487,2.77882 20.9756,4.73188 6.22592,3.01672 10.89238,7.80983 14.3014,14.68954 2.51451,5.07448 2.68373,5.76148 2.9043,11.7909 0.39797,10.87906 -2.50584,17.07342 -12.80548,27.31652 -3.1661,3.14871 -24.26828,23.74785 -46.89375,45.77587 -22.62546,22.02802 -44.22387,43.23227 -47.99645,47.12056 l -6.85925,7.06961 0.40825,3.1644 c 0.22454,1.74042 4.78171,28.79605 10.12706,60.12361 13.50933,79.17444 14.42565,85.08365 14.10444,90.95723 -0.54823,10.02485 -7.37613,19.40945 -17.92552,24.63775 l -5.55607,2.7536 h -7.42618 -7.42617 l -10.3431,-5.18952 c -5.68871,-2.85423 -33.26918,-17.19092 -61.28995,-31.8593 -56.41869,-29.5342 -65.42713,-34.15265 -66.6009,-34.14491 -0.83194,0.006 -6.21944,2.78846 -80.22728,41.4425 -60.57536,31.6383 -56.18338,29.59098 -64.10588,29.88302 -5.62903,0.2075 -7.00794,0.0397 -10.71685,-1.30431 z"
     id="path1142" />
  <path
     style="fill:#f2f2f2;fill-opacity:1;stroke:none;stroke-width:0;stroke-miterlimit:4;stroke-dasharray:none"
     d="m 132.92987,509.6503 c -8.23363,-2.88716 -15.53302,-9.62524 -19.42034,-17.92694 -1.63072,-3.48255 -1.76145,-4.33274 -1.6992,-11.05092 0.0572,-6.16747 1.14273,-13.60405 7.1138,-48.73177 3.87551,-22.79951 9.36629,-55.23082 12.20174,-72.06958 l 5.15537,-30.61594 -22.07882,-21.91919 C 102.05907,295.28041 77.267734,270.75251 59.110554,252.82952 20.675819,214.89053 22.278878,216.94501 21.727316,204.91917 c -0.269421,-5.87425 -0.121384,-7.39213 1.060108,-10.86963 2.617773,-7.70493 8.97775,-15.25536 15.733905,-18.67896 4.615947,-2.33908 4.211375,-2.27213 96.005251,-15.88671 37.27415,-5.52838 59.89495,-9.05168 60.22334,-9.38006 0.0997,-0.0997 5.85004,-11.69981 12.77846,-25.77793 41.44378,-84.211289 54.39728,-109.84043 56.97903,-112.735916 12.61547,-14.1484934 34.45433,-14.1484934 46.96274,0 1.97313,2.231848 10.97207,19.756467 36.34561,70.779818 23.17356,46.599418 34.08958,67.925998 34.89439,68.173038 1.62194,0.49786 10.82163,1.89211 63.19343,9.57723 51.84119,7.60725 81.6211,12.13924 85.72587,13.04601 7.89153,1.74327 15.53628,8.25189 19.80083,16.85813 2.51451,5.07448 2.68373,5.76148 2.9043,11.7909 0.27426,7.49746 -1.00116,12.32969 -4.78014,18.11074 -2.69686,4.12563 -3.02296,4.45233 -56.19659,56.29988 -30.19799,29.44488 -53.46648,52.85086 -53.46427,53.78017 0.001,0.54472 2.28278,14.37583 5.06999,30.73578 19.39524,113.84366 19.15591,112.35035 19.22612,119.95902 0.0667,7.23323 0.0435,7.35477 -2.3205,12.14256 -3.34731,6.77923 -8.25289,11.60794 -15.37837,15.1374 l -5.55913,2.7536 -7.64013,-0.0132 -7.64014,-0.0132 -8.22744,-4.20085 c -4.52509,-2.3105 -35.2752,-18.32434 -68.33358,-35.58636 -33.05837,-17.26201 -60.52733,-31.38547 -61.04213,-31.38547 -0.5148,0 -29.28706,14.79025 -63.93836,32.86723 -34.6513,18.07698 -65.52013,34.07343 -68.59739,35.54769 -5.24588,2.51319 -5.99624,2.69504 -12.02472,2.9141 -5.46402,0.19854 -7.04973,0.0162 -10.55793,-1.21395 z"
     id="path1144" />
</svg>
